<?xml version="1.0" encoding="utf-8"?>
<!-- Generator: Adobe Illustrator 25.2.1, SVG Export Plug-In . SVG Version: 6.00 Build 0)  -->
<svg version="1.1" id="Layer_2_1_" xmlns="http://www.w3.org/2000/svg" xmlns:xlink="http://www.w3.org/1999/xlink" x="0px" y="0px"
	 viewBox="0 0 660 222.6" style="enable-background:new 0 0 660 222.6;" xml:space="preserve">
<style type="text/css">
	.st0{fill:#FFFFFF;}
	.st1{fill:#2C80D8;}
	.st2{fill:none;}
	.st3{fill:#52A6FF;}
</style>
<path class="st0" d="M67.2,187C16.5,157.8,8.7,86.3,51.6,46.8c16.8-15.4,38.4-22.7,61-22.9c13.4,0,48.4,0.1,61.7,0.1
	c31.3,0.1,64.3,0.3,95.5,0.3c-0.1,53.9-0.1,107.6-0.3,161.4v13.1c-26.5-0.1-52.9-0.1-79.4-0.3C158,198.5,96.2,203.6,67.2,187z"/>
<path class="st1" d="M315.6,12.5v25c0.1,57.8,0.1,115.4,0.3,173.2c0,6.6,5.3,11.9,11.9,11.9c38.3-0.1,90.5-0.3,128.8-0.4
	c11,0,43.8,0,54.8-0.1c31.3-0.4,61.7-13.5,82.5-37.2c42.8-48.6,34.8-124.5-17-163C542.7-3.5,480.4,0.3,440.4,0.4
	c-33,0.1-79.8,0.3-112.8,0.3C321.1,0.7,315.8,5.9,315.6,12.5z"/>
<rect x="363.4" y="76.3" class="st2" width="296.6" height="124.5"/>
<g>
	<path class="st0" d="M382.4,113.8h-23.9V130h28.1v10H346V79.5h40.4v10.1h-28V104h23.9v9.8H382.4z"/>
	<path class="st0" d="M395.6,140v-36.1h-6.7v-8.8h6.7v-3.8c0-5,1.4-8.9,4.3-11.7s6.9-4.2,12.1-4.2c2.1,0.1,4.1,0.3,6.1,0.8l-0.1,9.3
		c-1.2-0.3-2.5-0.4-3.7-0.4c-4.5,0-6.8,2.1-6.8,6.3V95h8.9v8.8h-8.9v36.1h-11.9V140z"/>
	<path class="st0" d="M426,140v-36.1h-6.7v-8.8h6.7v-3.8c0-5,1.4-8.9,4.3-11.7s6.9-4.2,12.1-4.2c2.1,0.1,4.1,0.3,6.1,0.8l-0.1,9.3
		c-1.2-0.3-2.5-0.4-3.7-0.4c-4.5,0-6.8,2.1-6.8,6.3V95h8.9v8.8h-8.9v36.1H426V140z"/>
	<path class="st0" d="M472.9,140.8c-6.6,0-11.9-2-16.1-6.1s-6.2-9.4-6.2-16.1v-1.2c-0.1-4.2,0.8-8.3,2.6-12.1
		c1.6-3.4,4.2-6.3,7.4-8.2c3.3-1.9,7.1-3,10.9-2.9c6.1,0,11,1.9,14.5,5.8s5.3,9.4,5.3,16.5v4.9h-28.6c0.3,2.7,1.5,5.2,3.5,7.1
		c2,1.8,4.7,2.8,7.4,2.7c4.2,0.2,8.2-1.7,10.8-5l5.9,6.6c-1.9,2.6-4.4,4.6-7.3,6C479.8,140.1,476.4,140.8,472.9,140.8z M471.5,103.9
		c-2.2-0.1-4.3,0.8-5.8,2.4c-1.6,2-2.6,4.4-2.8,6.9h16.7v-1c0.1-2.3-0.7-4.5-2.2-6.2C476,104.5,474.1,103.9,471.5,103.9z"/>
	<path class="st0" d="M516.9,131.1c2,0.1,3.9-0.6,5.4-1.8c1.4-1.2,2.2-3,2.2-4.9h11.2c0,3-0.9,5.9-2.5,8.4c-1.7,2.5-4,4.6-6.7,5.9
		c-2.9,1.4-6.1,2.1-9.4,2.1c-6.4,0-11.5-2-15.2-6.1s-5.6-9.7-5.6-16.9V117c0-6.9,1.8-12.4,5.5-16.6s8.7-6.2,15.1-6.2
		c5.6,0,10.1,1.6,13.5,4.8c3.4,3.2,5.1,7.4,5.2,12.8h-11.2c0-2.1-0.8-4.1-2.2-5.7c-3.2-3-8.3-2.9-11.3,0.3c-0.2,0.2-0.3,0.4-0.5,0.6
		c-1.4,2-2.1,5.3-2.1,9.9v1.2c0,4.6,0.7,8,2.1,10S514,131.1,516.9,131.1z"/>
	<path class="st0" d="M556.9,84v11h7.7v8.8h-7.7v22.4c0,1.7,0.3,2.9,1,3.6s1.9,1.1,3.7,1.1c1.2,0,2.3-0.1,3.5-0.3v9.1
		c-2.4,0.7-4.8,1.1-7.3,1.1c-8.4,0-12.7-4.2-12.9-12.7v-24.2h-6.6v-8.8h6.6v-11h12V84z"/>
</g>
<path class="st1" d="M281.8,0.6c-33-0.1-67.7-0.3-100.7-0.3C141,0.2,78.8-3.6,44.6,21.8c-51.8,38.7-59.8,114.5-17,163
	c20.8,23.7,51.3,36.7,82.5,37.2c11,0.1,43.8,0.1,54.8,0.1c38.3,0.1,78.3,0.3,116.6,0.4c3.3,0.1,6.5-1.3,8.7-3.8
	c2.1-2.2,3.3-5.1,3.2-8.1c0.1-57.8,0.1-115.4,0.3-173.2v-25C293.7,6.2,288.2,0.8,281.8,0.6z M67.2,187
	C16.5,157.8,8.7,86.3,51.6,46.8c16.8-15.4,38.4-22.7,61-22.9c13.4,0,48.4,0.1,61.7,0.1c31.3,0.1,64.3,0.3,95.5,0.3
	c-0.1,53.9-0.1,107.6-0.3,161.4v13.1c-26.5-0.1-52.9-0.1-79.4-0.3C158,198.5,96.2,203.6,67.2,187z"/>
<g>
	<path class="st3" d="M84.9,126.8c0.2-2.1-0.8-4.2-2.5-5.4c-1.7-1.3-4.6-2.6-9-4c-3.5-1.1-7-2.5-10.3-4.1c-6.9-3.7-10.3-8.7-10.3-15
		c-0.1-3.1,0.9-6.2,2.8-8.7c2-2.7,4.7-4.8,7.9-6c3.7-1.5,7.6-2.2,11.6-2.2c4-0.1,7.9,0.7,11.5,2.3c3.2,1.4,5.9,3.7,7.9,6.6
		c1.9,2.9,2.9,6.3,2.8,9.7H85c0.1-2.4-0.8-4.8-2.6-6.5c-2.1-1.6-4.7-2.4-7.3-2.3c-3,0-5.4,0.6-7.1,1.9c-1.6,1.2-2.6,3.1-2.5,5.1
		c0,2.1,1.2,3.9,3,4.9c2.7,1.6,5.6,2.9,8.7,3.7c7.1,2.1,12.2,4.8,15.5,7.9c3.2,3.1,5,7.4,4.9,11.8c0.2,4.8-2,9.4-5.9,12.3
		c-4,3-9.3,4.5-16,4.5c-4.4,0-8.7-0.8-12.7-2.6c-3.5-1.4-6.5-3.9-8.7-7c-2-3.1-3.1-6.6-3-10.3h12.5c0,6.7,4,10,12,10
		c3,0,5.3-0.6,6.9-1.8C84.2,130.4,85,128.6,84.9,126.8z"/>
	<path class="st3" d="M119.1,142.6h-12.5V82.2h12.5V142.6z"/>
	<path class="st3" d="M130.6,142.6V82.2h18.6c5-0.1,9.9,1.2,14.3,3.6c4.2,2.4,7.6,5.9,9.8,10.2c2.4,4.6,3.6,9.8,3.5,15v2.8
		c0.1,5.2-1.1,10.4-3.5,15c-2.2,4.3-5.6,7.8-9.8,10.2c-4.3,2.4-9.2,3.7-14.2,3.7h-18.7V142.6L130.6,142.6z M143.1,92.3v40.3h6
		c4.9,0,8.6-1.6,11.2-4.8s3.9-7.7,3.9-13.7v-3.2c0-6.1-1.3-10.8-3.8-14s-6.3-4.8-11.2-4.8h-6.1L143.1,92.3L143.1,92.3z"/>
</g>
<path class="st3" d="M247.8,105.5c-6.6,0-13.3,0-19.9-0.1H226V83.6c0-0.8-0.7-1.5-1.5-1.5h-10.7c-0.8,0-1.5,0.7-1.5,1.5
	c0,6.6,0,13.3-0.1,19.9v1.9h-21.8c-0.8,0-1.5,0.7-1.5,1.5v10.7c0,0.4,0.1,0.8,0.4,1.1c0.3,0.3,0.7,0.5,1.1,0.4
	c6.6,0,13.3,0,19.9,0.1h1.9v23.4c0,0.8,0.7,1.5,1.5,1.5h10.7c0.4,0,0.8-0.1,1.1-0.4c0.3-0.3,0.5-0.7,0.4-1.1c0-6.6,0-14.9,0.1-21.5
	v-1.9h21.8c0.8,0,1.5-0.7,1.5-1.5V107C249.2,106.2,248.6,105.5,247.8,105.5z"/>
<path class="st3" d="M233.7,96.1h14.5c0.5,0,1-0.7,1-1.5V83.9c0-0.8-0.5-1.4-1-1.5c-4.4,0-8.9,0-13.3-0.1h-1.3"/>
<path class="st3" d="M247.3,82.3h-14.5c-0.5,0-1,0.7-1,1.5v10.7c0,0.8,0.5,1.4,1,1.5c4.4,0,8.9,0,13.3,0.1h1.3"/>
<path class="st3" d="M247.1,130.3h-14.5c-0.5,0-1,0.7-1,1.5v10.7c0,0.8,0.5,1.4,1,1.5c4.4,0,8.9,0,13.3,0.1h1.3"/>
<path class="st3" d="M233.7,144.1h14.5c0.5,0,1-0.7,1-1.5v-10.7c0-0.8-0.5-1.4-1-1.5c-4.4,0-8.9,0-13.3-0.1h-1.3"/>
</svg>
